<?xml version="1.0" standalone="no"?>
<!DOCTYPE svg PUBLIC "-//W3C//DTD SVG 20010904//EN"
 "http://www.w3.org/TR/2001/REC-SVG-20010904/DTD/svg10.dtd">
<svg version="1.0" xmlns="http://www.w3.org/2000/svg"
 width="512.000000pt" height="512.000000pt" viewBox="0 0 512.000000 512.000000"
 preserveAspectRatio="xMidYMid meet">

<g transform="translate(0.000000,512.000000) scale(0.100000,-0.100000)"
fill="#000000" stroke="none">
<path d="M2350 4864 c-19 -2 -78 -9 -130 -15 -725 -81 -1399 -477 -1762 -1034
-292 -449 -372 -984 -222 -1483 80 -266 229 -524 419 -729 l65 -71 -200 -550
c-110 -303 -200 -561 -200 -574 1 -39 36 -104 70 -128 19 -13 53 -25 79 -28
45 -4 84 13 726 313 l679 317 130 -26 c224 -44 299 -51 561 -51 268 1 385 13
603 61 719 160 1320 605 1607 1189 346 703 197 1511 -387 2095 -367 367 -855
605 -1418 691 -129 19 -524 34 -620 23z m569 -338 c493 -74 933 -288 1249
-607 229 -232 380 -504 444 -802 31 -146 31 -418 0 -564 -141 -653 -704 -1177
-1466 -1364 -207 -50 -326 -63 -586 -64 -251 0 -360 12 -568 61 -57 13 -120
24 -140 24 -27 -1 -183 -69 -557 -244 -286 -134 -521 -243 -523 -241 -2 2 62
184 142 405 152 418 163 460 132 518 -8 15 -42 54 -76 87 -240 234 -404 530
-467 842 -26 133 -24 404 5 540 106 494 452 918 962 1177 236 120 511 204 770
236 47 5 101 12 120 14 76 9 460 -4 559 -18z"/>
<path d="M1347 3119 c-26 -4 -67 -19 -91 -33 -203 -119 -191 -408 20 -512 110
-54 256 -27 333 62 59 66 76 111 76 199 0 64 -5 89 -23 122 -66 124 -179 183
-315 162z m78 -284 c0 -22 -31 -33 -47 -17 -17 17 -1 44 24 40 15 -2 23 -10
23 -23z"/>
<path d="M2509 3119 c-87 -13 -163 -70 -207 -153 -22 -43 -27 -64 -27 -131 0
-67 5 -88 27 -131 52 -99 147 -157 258 -157 111 0 206 58 258 157 22 43 27 64
27 131 0 67 -5 88 -27 131 -60 115 -179 173 -309 153z m76 -284 c0 -22 -31
-33 -47 -17 -17 17 -1 44 24 40 15 -2 23 -10 23 -23z"/>
<path d="M3667 3119 c-87 -14 -161 -71 -210 -163 -31 -59 -31 -184 1 -243 58
-109 147 -166 262 -166 248 0 382 291 219 477 -67 76 -167 111 -272 95z m78
-284 c0 -22 -31 -33 -47 -17 -17 17 -1 44 24 40 15 -2 23 -10 23 -23z"/>
</g>
</svg>
